<?xml version="1.0" encoding="UTF-8"?>
<svg xmlns="http://www.w3.org/2000/svg" width="960" height="540" viewBox="0 0 960 540">
<style>
text { font-family: -apple-system, BlinkMacSystemFont, 'Segoe UI', sans-serif; }
.title { font-size: 26px; font-weight: 700; fill: #1f2933; }
.axis-label { font-size: 14px; font-weight: 600; fill: #334155; }
.tick { font-size: 12px; fill: #64748b; }
.legend { font-size: 13px; font-weight: 600; fill: #1f2933; }
</style>
<rect width="960" height="540" fill="#ffffff"/>
<text class="title" x="480.0" y="34" text-anchor="middle">DGX Spark GB10 t/s</text>
<line x1="82" y1="468.00" x2="878" y2="468.00" stroke="#e2e8f0" stroke-width="1"/>
<text class="tick" x="70" y="472.00" text-anchor="end">0</text>
<line x1="82" y1="387.60" x2="878" y2="387.60" stroke="#e2e8f0" stroke-width="1"/>
<text class="tick" x="70" y="391.60" text-anchor="end">100</text>
<line x1="82" y1="307.20" x2="878" y2="307.20" stroke="#e2e8f0" stroke-width="1"/>
<text class="tick" x="70" y="311.20" text-anchor="end">200</text>
<line x1="82" y1="226.80" x2="878" y2="226.80" stroke="#e2e8f0" stroke-width="1"/>
<text class="tick" x="70" y="230.80" text-anchor="end">300</text>
<line x1="82" y1="146.40" x2="878" y2="146.40" stroke="#e2e8f0" stroke-width="1"/>
<text class="tick" x="70" y="150.40" text-anchor="end">400</text>
<line x1="82" y1="66.00" x2="878" y2="66.00" stroke="#e2e8f0" stroke-width="1"/>
<text class="tick" x="70" y="70.00" text-anchor="end">500</text>
<text class="tick" x="890" y="472.00" text-anchor="start">0</text>
<text class="tick" x="890" y="371.50" text-anchor="start">5</text>
<text class="tick" x="890" y="271.00" text-anchor="start">10</text>
<text class="tick" x="890" y="170.50" text-anchor="start">15</text>
<text class="tick" x="890" y="70.00" text-anchor="start">20</text>
<line x1="82.00" y1="66" x2="82.00" y2="468" stroke="#e2e8f0" stroke-width="1"/>
<text class="tick" x="82.00" y="492" text-anchor="middle">0</text>
<line x1="324.92" y1="66" x2="324.92" y2="468" stroke="#e2e8f0" stroke-width="1"/>
<text class="tick" x="324.92" y="492" text-anchor="middle">20k</text>
<line x1="567.84" y1="66" x2="567.84" y2="468" stroke="#e2e8f0" stroke-width="1"/>
<text class="tick" x="567.84" y="492" text-anchor="middle">40k</text>
<line x1="810.76" y1="66" x2="810.76" y2="468" stroke="#e2e8f0" stroke-width="1"/>
<text class="tick" x="810.76" y="492" text-anchor="middle">60k</text>
<line x1="82" y1="66" x2="82" y2="468" stroke="#334155" stroke-width="1.4"/>
<line x1="878" y1="66" x2="878" y2="468" stroke="#334155" stroke-width="1.4"/>
<line x1="82" y1="468" x2="878" y2="468" stroke="#334155" stroke-width="1.4"/>
<text class="axis-label" x="480.0" y="520" text-anchor="middle">ctx size</text>
<text class="axis-label" x="22" y="267.0" text-anchor="middle" transform="rotate(-90 22 267.0)">prefill t/s</text>
<text class="axis-label" x="938" y="267.0" text-anchor="middle" transform="rotate(90 938 267.0)">generation t/s</text>
<polyline fill="none" stroke="#2563eb" stroke-width="3" stroke-linecap="round" stroke-linejoin="round" points="106.88,94.08 131.75,131.31 156.62,138.59 181.50,142.44 206.38,145.53 231.25,149.27 256.12,152.50 281.00,154.76 305.88,158.60 330.75,161.24 355.62,162.76 380.50,165.89 405.38,169.02 430.25,172.53 455.12,174.35 480.00,175.92 504.88,187.44 529.75,189.22 554.62,191.33 579.50,193.72 604.38,196.73 629.25,198.95 654.12,200.63 679.00,202.82 703.88,207.43 728.75,208.97 753.62,211.11 778.50,212.30 803.38,214.68 828.25,215.93 853.12,218.82 878.00,220.03"/>
<polyline fill="none" stroke="#dc2626" stroke-width="3" stroke-linecap="round" stroke-linejoin="round" points="106.88,183.58 131.75,186.60 156.62,188.41 181.50,191.83 206.38,193.43 231.25,194.84 256.12,196.85 281.00,195.64 305.88,197.25 330.75,198.46 355.62,200.07 380.50,201.88 405.38,203.08 430.25,205.29 455.12,207.50 480.00,214.74 504.88,216.75 529.75,217.76 554.62,218.76 579.50,219.16 604.38,220.37 629.25,220.97 654.12,222.18 679.00,222.78 703.88,223.78 728.75,224.79 753.62,226.00 778.50,227.20 803.38,228.01 828.25,230.42 853.12,231.22 878.00,232.83"/>
<rect x="694" y="66" width="176" height="62" rx="6" fill="#ffffff" stroke="#cbd5e1"/>
<rect x="708" y="78" width="12" height="12" fill="#2563eb"/>
<text class="legend" x="730" y="89">prefill</text>
<rect x="708" y="104" width="12" height="12" fill="#dc2626"/>
<text class="legend" x="730" y="115">generation</text>
</svg>
